<svg xmlns="http://www.w3.org/2000/svg" viewBox="0 0 297.25 375.76"><defs><style>.cls-1{fill:#fff;}.cls-2{fill:#e30613;}.cls-3{fill:#0092d1;}.cls-4{fill:#008bd2;}.cls-5{fill:#c6c6c6;}.cls-6{fill:#0091d4;}.cls-7{fill:#d32e1f;}</style></defs><g id="Color"><rect class="cls-1" x="63.15" y="6.33" width="171.43" height="145.76"/><rect class="cls-2" x="78.45" y="18.93" width="13.66" height="80.35"/><polygon class="cls-2" points="114.34 18.93 126.66 59.1 126.66 18.93 140.05 18.93 140.05 99.28 126.93 99.28 114.34 59.1 114.34 99.28 101.22 99.28 101.22 18.93 114.34 18.93"/><polygon class="cls-2" points="176.48 18.93 176.48 45.17 168.44 45.17 168.44 99.28 154.25 99.28 154.25 45.31 145.68 45.31 145.68 18.93 176.48 18.93"/><path class="cls-2" d="M370.39,159.18H353.78l-13.39,80.35h15.27l1.61-10.44h9.64l1.87,10.44h15.54Zm-12.13,52.1,3.53-24.55,3.51,24.55Z" transform="translate(-166.33 -140.26)"/><rect class="cls-3" x="75.64" y="104.83" width="145.77" height="12.05"/><rect class="cls-4" x="75.64" y="128.13" width="145.77" height="12.12"/><path class="cls-5" d="M224.48,140.26V321H405.24V140.26ZM395.61,286.67H233.31l0-136.66H395.61Z" transform="translate(-166.33 -140.26)"/></g><g id="Capa_3" data-name="Capa 3"><path class="cls-6" d="M438.81,464a56.72,56.72,0,0,1-110.24,0h-8.89c6.05,29,32.44,52,63.9,52s58.09-23,64.14-52Z" transform="translate(-166.33 -140.26)"/><path class="cls-6" d="M419.68,464c-5.39,14-19.55,25-36.05,25s-30.6-11-35.95-25h-9.79a47.72,47.72,0,0,0,91.62,0Z" transform="translate(-166.33 -140.26)"/><path class="cls-5" d="M166.33,439.82l7-5a14.2,14.2,0,0,0,12.69,7c6.36,0,11.18-3.06,11.18-7.39,0-5.24-7.46-8.4-14.06-11.25s-14-6.4-14-15.29c0-9.28,8.05-15.75,18.24-15.75,8.09,0,14.14,3.9,16.46,10.13l-6.61,4.57a10.56,10.56,0,0,0-9.78-6c-5.2,0-9.35,3.23-9.35,7.24,0,4.43,5.24,6,12.13,9,9,3.93,15.93,8.26,15.93,17.19,0,10.05-8.72,16.52-20.22,16.52C176.63,450.72,169.56,446.36,166.33,439.82Z" transform="translate(-166.33 -140.26)"/><path class="cls-5" d="M222.68,401.85v14.52h21.45v8.86H222.68v15.68h24.86v8.86H213.79V393.1h33.75v8.75Z" transform="translate(-166.33 -140.26)"/><path class="cls-5" d="M302.35,393v57.8h-.43l-36.24-37.87v36.95h-8.9V392.12h.46l36.18,37.79V393Z" transform="translate(-166.33 -140.26)"/><path class="cls-5" d="M310,439.82l7-5a14.2,14.2,0,0,0,12.69,7c6.36,0,11.18-3.06,11.18-7.39,0-5.24-7.46-8.4-14.07-11.25s-14-6.4-14-15.29c0-9.28,8-15.75,18.24-15.75,8.09,0,14.14,3.9,16.46,10.13l-6.61,4.57a10.56,10.56,0,0,0-9.78-6c-5.2,0-9.35,3.23-9.35,7.24,0,4.43,5.24,6,12.13,9,9,3.93,15.93,8.26,15.93,17.19,0,10.05-8.72,16.52-20.22,16.52C320.28,450.72,313.21,446.36,310,439.82Z" transform="translate(-166.33 -140.26)"/><path class="cls-5" d="M452.64,449.77l-15.26-21.94h-7v21.94h-8.89l0-56.67H439.1c10.55,0,19.2,8.12,19.2,18.21a16.59,16.59,0,0,1-11.22,15.79l16.49,22.67Zm-13.33-29.32a9.67,9.67,0,0,0,9.81-9.35c0-5.27-4.53-9.18-9.81-9.18h-8.93v18.53Z" transform="translate(-166.33 -140.26)"/><path class="cls-5" d="M383.7,424.75" transform="translate(-166.33 -140.26)"/><path class="cls-5" d="M388,421.75v-9.41a10.51,10.51,0,1,0-8,0v9.42a29.33,29.33,0,1,0,8,0Zm-4-24.64a5.52,5.52,0,1,1-5.53,5.51A5.51,5.51,0,0,1,384,397.11ZM384,471a20.31,20.31,0,1,1,20.35-20.25A20.31,20.31,0,0,1,384,471Z" transform="translate(-166.33 -140.26)"/><path class="cls-7" d="M394.53,450.74A10.52,10.52,0,1,1,384,440.23,10.51,10.51,0,0,1,394.53,450.74Z" transform="translate(-166.33 -140.26)"/></g></svg>